<svg xmlns="http://www.w3.org/2000/svg" width="22" height="22" fill="none" viewBox="0 0 22 22"><path fill="#000" d="M10.9952 19C6.60888 19 3 15.3837 3 11C3 6.61631 6.60888 3 11.0048 3C15.3911 3 19 6.61631 19 11C19 15.3837 15.3911 19 10.9952 19ZM13.4139 8.78416C13.6539 8.45803 13.5771 8.00718 13.1356 7.70023C12.5885 7.29736 11.8398 7.05756 11.0048 7.05756C8.98919 7.05756 7.38631 8.42925 7.07918 10.3573H6.62807C6.24415 10.3573 6.10018 10.7698 6.34973 11.0576L7.4823 12.3621C7.71266 12.6403 8.04859 12.6307 8.28855 12.3621L9.43071 11.0576C9.68986 10.7698 9.53628 10.3573 9.15237 10.3573H8.54768C8.82602 9.31175 9.80503 8.52518 11.0048 8.52518C11.5231 8.52518 11.9262 8.66906 12.3389 8.94724C12.7613 9.22541 13.1644 9.12948 13.4139 8.78416ZM15.6695 10.9137L14.5465 9.6091C14.3065 9.34053 13.9706 9.35012 13.7402 9.6091L12.5885 10.9137C12.3293 11.211 12.4829 11.6235 12.8764 11.6235H13.4427C13.174 12.6691 12.1854 13.4556 10.9952 13.4556C10.4769 13.4556 10.0738 13.3022 9.66107 13.0336C9.23876 12.7554 8.83564 12.8513 8.58607 13.187C8.34612 13.5228 8.42292 13.9736 8.85482 14.2806C9.41152 14.6739 10.1602 14.9233 10.9952 14.9233C13.0108 14.9233 14.6137 13.542 14.9208 11.6235H15.3911C15.775 11.6235 15.9286 11.211 15.6695 10.9137Z"/></svg>