<svg width="22" height="22" viewBox="0 0 22 22" fill="none" xmlns="http://www.w3.org/2000/svg">
<path d="M11 19C15.377 19 19 15.377 19 11C19 6.63282 15.3672 3 10.9902 3C6.61321 3 3 6.63282 3 11C3 15.377 6.623 19 11 19ZM9.87393 15.0441C9.5508 15.0441 9.28641 14.8972 9.04162 14.6034L6.90698 11.9498C6.7503 11.7736 6.67197 11.5581 6.67197 11.3525C6.67197 10.9119 7.02448 10.5594 7.45532 10.5594C7.71971 10.5594 7.94491 10.6671 8.15054 10.9315L9.84455 13.1248L13.1934 7.71971C13.3794 7.42594 13.6242 7.27907 13.8788 7.27907C14.3097 7.27907 14.7111 7.56303 14.7111 8.01346C14.7111 8.2191 14.6034 8.43451 14.4859 8.62057L10.6573 14.5838C10.4614 14.8874 10.1971 15.0441 9.87393 15.0441Z" fill="black"/>
</svg>
