<svg width="22" height="22" viewBox="0 0 22 22" fill="none" xmlns="http://www.w3.org/2000/svg">
<path fill-rule="evenodd" clip-rule="evenodd" d="M11 19C15.4183 19 19 15.4183 19 11C19 6.58172 15.4183 3 11 3C6.58172 3 3 6.58172 3 11C3 15.4183 6.58172 19 11 19ZM11 12.0378C10.495 12.0378 10.2277 11.7649 10.198 11.2777L10.0792 7.86724C10.0594 7.37029 10.4456 7 10.9901 7C11.5248 7 11.9208 7.37029 11.901 7.87697L11.7723 11.2777C11.7525 11.7747 11.4752 12.0378 11 12.0378ZM11 15C10.4554 15 10 14.62 10 14.0841C10 13.5384 10.4456 13.1681 11 13.1681C11.5347 13.1681 12 13.5286 12 14.0841C12 14.6297 11.5347 15 11 15Z" fill="black"/>
</svg>
