<svg xmlns="http://www.w3.org/2000/svg" width="20" height="20" fill="none" viewBox="0 0 20 20"><path fill="url(#paint0_linear)" d="M18.9755 7.59375H13.2001L12.2309 13.2522H8.23089L3.50781 18.8584C3.65751 18.9878 3.84837 19.0598 4.04627 19.0614H16.5817C16.7292 19.0633 16.8724 19.0122 16.9854 18.9173C17.0983 18.8224 17.1735 18.6901 17.197 18.5445L18.9755 7.59375V7.59375Z"/><path fill="#000" d="M1.23074 1.79082C1.14093 1.78966 1.05196 1.80818 0.970069 1.84507C0.888177 1.88195 0.815353 1.93632 0.756708 2.00435C0.698064 2.07237 0.655021 2.15241 0.630602 2.23885C0.606183 2.32528 0.60098 2.41601 0.615358 2.50467L3.22767 18.3631C3.25977 18.5561 3.35893 18.7315 3.50767 18.8585C3.65737 18.988 3.84823 19.0599 4.04613 19.0616L8.89536 13.2524H8.21536L7.14767 7.5939H18.9754L19.8061 2.50775C19.8205 2.41909 19.8153 2.32836 19.7909 2.24192C19.7665 2.15549 19.7234 2.07545 19.6648 2.00742C19.6061 1.9394 19.5333 1.88503 19.4514 1.84814C19.3695 1.81126 19.2806 1.79274 19.1907 1.7939L1.23074 1.79082Z"/><defs><linearGradient id="paint0_linear" x1="19.742" x2="13.162" y1="10.108" y2="18.211" gradientUnits="userSpaceOnUse"><stop offset=".07" stop-color="#A5A5A5"/><stop offset="1"/></linearGradient></defs></svg>