<svg xmlns="http://www.w3.org/2000/svg" width="20" height="20" fill="none" viewBox="0 0 20 20"><path fill="#fff" d="M2 8.00005L6.69 12.5V8.00005L4.69 1.86005C4.5875 1.54405 4.102 1.54405 4 1.86005L2 8.00005Z"/><path fill="#fff" d="M18.0001 8.00005L13.3101 12.5V8.00005L15.3101 1.86005C15.4126 1.54405 15.8981 1.54405 16.0001 1.86005L18.0001 8.00005Z"/><path fill="#fff" d="M10 18.19L2.5 8H17.5L10 18.19Z"/><path fill="#CCC" d="M10 18.19L6.69 8H2L4 13.5L10 18.19Z"/><path fill="#CCC" d="M10 18.19L13.31 8H18L16 13.5L10 18.19Z"/><path fill="#898989" d="M1.99994 8L1.04994 11.08C0.959938 11.3625 1.04994 11.68 1.29994 11.86L10.0099 18.19L1.99994 8Z"/><path fill="#898989" d="M18 8L18.95 11.08C19.04 11.3625 18.95 11.68 18.7 11.86L10 18.19L18 8Z"/></svg>