<svg xmlns="http://www.w3.org/2000/svg" width="22" height="22" fill="none" viewBox="0 0 22 22"><path fill="#000" fill-rule="evenodd" d="M11 19C15.4183 19 19 15.4183 19 11C19 6.58172 15.4183 3 11 3C6.58172 3 3 6.58172 3 11C3 15.4183 6.58172 19 11 19ZM8.76982 10.0946L8.76989 10.0944L5.43703 8.24283C5.19564 8.10873 5.10867 7.80433 5.24277 7.56293C5.37688 7.32154 5.68128 7.23457 5.92267 7.36868L9.24823 9.21621L10.1218 7.61232C10.5007 6.91675 11.4993 6.91675 11.8782 7.61232L14.2719 12.0071L16.671 13.34C16.9124 13.4741 16.9994 13.7785 16.8652 14.0199C16.7311 14.2613 16.4267 14.3482 16.1853 14.2141L14.576 13.32C14.576 13.3201 14.576 13.3201 14.5759 13.3202L8.76982 10.0946ZM8.29148 10.9728L7.47507 12.4717C7.11212 13.138 7.59446 13.95 8.35326 13.95H13.6467C13.648 13.95 13.6492 13.95 13.6505 13.95L8.29148 10.9728Z" clip-rule="evenodd" opacity=".5"/></svg>