<svg xmlns="http://www.w3.org/2000/svg" width="20" height="20" fill="none" viewBox="0 0 20 20"><g clip-path="url(#clip0)"><path fill="#fff" d="M10 0.25C4.46857 0.25 0 4.71857 0 10.25C0 14.6557 2.87571 18.4071 6.84286 19.75C7.34286 19.8443 7.53143 19.5314 7.53143 19.2814V17.5943C4.75 18.1871 4.15571 16.25 4.15571 16.25C3.68714 15.0929 3.03143 14.7814 3.03143 14.7814C2.12571 14.1557 3.09429 14.1871 3.09429 14.1871C4.09429 14.25 4.62429 15.2186 4.62429 15.2186C5.53143 16.75 6.96857 16.3129 7.53143 16.0614C7.62571 15.4057 7.87429 14.9686 8.15571 14.7186C5.93714 14.4686 3.59429 13.5943 3.59429 9.78143C3.59429 8.68714 3.96857 7.81286 4.62429 7.09429C4.53143 6.84429 4.18714 5.81286 4.71857 4.43714C4.71857 4.43714 5.56143 4.15571 7.46857 5.46857C8.2833 5.24534 9.12382 5.13007 9.96857 5.12571C10.8114 5.12571 11.6871 5.25 12.4686 5.46857C14.3757 4.18714 15.2186 4.43714 15.2186 4.43714C15.75 5.81286 15.4057 6.84429 15.3129 7.09429C15.97 7.78 16.3443 8.68714 16.3443 9.78C16.3443 13.6243 14 14.4686 11.7814 14.7186C12.1243 15.0314 12.4686 15.6243 12.4686 16.5614V19.3129C12.4686 19.5943 12.6557 19.9057 13.1557 19.7814C17.1257 18.4057 20 14.6557 20 10.25C20 4.71857 15.5314 0.25 10 0.25V0.25Z"/></g><defs><clipPath id="clip0"><rect width="20" height="20" fill="#fff"/></clipPath></defs></svg>